<mxfile host="Electron" agent="Mozilla/5.0 (Windows NT 10.0; Win64; x64) AppleWebKit/537.36 (KHTML, like Gecko) draw.io/24.7.8 Chrome/128.0.6613.36 Electron/32.0.1 Safari/537.36" version="24.7.8">
  <diagram name="第 1 页" id="wGIvIjbFLNPSM9xrfMBH">
    <mxGraphModel dx="1185" dy="683" grid="1" gridSize="10" guides="1" tooltips="1" connect="1" arrows="1" fold="1" page="1" pageScale="1" pageWidth="827" pageHeight="1169" math="0" shadow="0">
      <root>
        <mxCell id="0" />
        <mxCell id="1" parent="0" />
        <mxCell id="S6BSTaH9ZhvcuOsjfWCv-1" value="end" style="ellipse;whiteSpace=wrap;html=1;aspect=fixed;sketch=1;curveFitting=1;jiggle=2;" vertex="1" parent="1">
          <mxGeometry x="200" y="360" width="40" height="40" as="geometry" />
        </mxCell>
        <mxCell id="S6BSTaH9ZhvcuOsjfWCv-2" value="u" style="ellipse;whiteSpace=wrap;html=1;aspect=fixed;sketch=1;curveFitting=1;jiggle=2;" vertex="1" parent="1">
          <mxGeometry x="120" y="480" width="40" height="40" as="geometry" />
        </mxCell>
        <mxCell id="S6BSTaH9ZhvcuOsjfWCv-3" value="v" style="ellipse;whiteSpace=wrap;html=1;aspect=fixed;sketch=1;curveFitting=1;jiggle=2;" vertex="1" parent="1">
          <mxGeometry x="280" y="480" width="40" height="40" as="geometry" />
        </mxCell>
        <mxCell id="S6BSTaH9ZhvcuOsjfWCv-4" value="" style="endArrow=classic;html=1;rounded=0;exitX=1;exitY=0;exitDx=0;exitDy=0;entryX=0.289;entryY=0.996;entryDx=0;entryDy=0;entryPerimeter=0;sketch=1;curveFitting=1;jiggle=2;" edge="1" parent="1" source="S6BSTaH9ZhvcuOsjfWCv-2" target="S6BSTaH9ZhvcuOsjfWCv-1">
          <mxGeometry width="50" height="50" relative="1" as="geometry">
            <mxPoint x="380" y="540" as="sourcePoint" />
            <mxPoint x="430" y="490" as="targetPoint" />
          </mxGeometry>
        </mxCell>
        <mxCell id="S6BSTaH9ZhvcuOsjfWCv-5" value="" style="endArrow=classic;html=1;rounded=0;exitX=0;exitY=0;exitDx=0;exitDy=0;entryX=1;entryY=1;entryDx=0;entryDy=0;sketch=1;curveFitting=1;jiggle=2;" edge="1" parent="1" source="S6BSTaH9ZhvcuOsjfWCv-3" target="S6BSTaH9ZhvcuOsjfWCv-1">
          <mxGeometry width="50" height="50" relative="1" as="geometry">
            <mxPoint x="380" y="540" as="sourcePoint" />
            <mxPoint x="430" y="490" as="targetPoint" />
          </mxGeometry>
        </mxCell>
        <mxCell id="S6BSTaH9ZhvcuOsjfWCv-6" value="" style="endArrow=classic;html=1;rounded=0;exitX=1;exitY=0.5;exitDx=0;exitDy=0;entryX=0;entryY=0.5;entryDx=0;entryDy=0;sketch=1;curveFitting=1;jiggle=2;fillColor=#d80073;strokeColor=#A50040;" edge="1" parent="1" source="S6BSTaH9ZhvcuOsjfWCv-2" target="S6BSTaH9ZhvcuOsjfWCv-3">
          <mxGeometry width="50" height="50" relative="1" as="geometry">
            <mxPoint x="380" y="540" as="sourcePoint" />
            <mxPoint x="430" y="490" as="targetPoint" />
          </mxGeometry>
        </mxCell>
        <mxCell id="S6BSTaH9ZhvcuOsjfWCv-7" value="end" style="ellipse;whiteSpace=wrap;html=1;aspect=fixed;sketch=1;curveFitting=1;jiggle=2;" vertex="1" parent="1">
          <mxGeometry x="530" y="360" width="40" height="40" as="geometry" />
        </mxCell>
        <mxCell id="S6BSTaH9ZhvcuOsjfWCv-8" value="u" style="ellipse;whiteSpace=wrap;html=1;aspect=fixed;sketch=1;curveFitting=1;jiggle=2;" vertex="1" parent="1">
          <mxGeometry x="450" y="480" width="40" height="40" as="geometry" />
        </mxCell>
        <mxCell id="S6BSTaH9ZhvcuOsjfWCv-9" value="v" style="ellipse;whiteSpace=wrap;html=1;aspect=fixed;sketch=1;curveFitting=1;jiggle=2;" vertex="1" parent="1">
          <mxGeometry x="610" y="480" width="40" height="40" as="geometry" />
        </mxCell>
        <mxCell id="S6BSTaH9ZhvcuOsjfWCv-10" value="" style="endArrow=classic;html=1;rounded=0;exitX=1;exitY=0;exitDx=0;exitDy=0;entryX=0.289;entryY=0.996;entryDx=0;entryDy=0;entryPerimeter=0;sketch=1;curveFitting=1;jiggle=2;" edge="1" parent="1" source="S6BSTaH9ZhvcuOsjfWCv-8" target="S6BSTaH9ZhvcuOsjfWCv-7">
          <mxGeometry width="50" height="50" relative="1" as="geometry">
            <mxPoint x="710" y="540" as="sourcePoint" />
            <mxPoint x="760" y="490" as="targetPoint" />
          </mxGeometry>
        </mxCell>
        <mxCell id="S6BSTaH9ZhvcuOsjfWCv-11" value="" style="endArrow=classic;html=1;rounded=0;exitX=0;exitY=0;exitDx=0;exitDy=0;entryX=1;entryY=1;entryDx=0;entryDy=0;sketch=1;curveFitting=1;jiggle=2;fillColor=#0050ef;strokeColor=#001DBC;" edge="1" parent="1" source="S6BSTaH9ZhvcuOsjfWCv-9" target="S6BSTaH9ZhvcuOsjfWCv-7">
          <mxGeometry width="50" height="50" relative="1" as="geometry">
            <mxPoint x="710" y="540" as="sourcePoint" />
            <mxPoint x="760" y="490" as="targetPoint" />
          </mxGeometry>
        </mxCell>
        <mxCell id="S6BSTaH9ZhvcuOsjfWCv-12" value="" style="endArrow=classic;html=1;rounded=0;exitX=1;exitY=0.5;exitDx=0;exitDy=0;entryX=0;entryY=0.5;entryDx=0;entryDy=0;sketch=1;curveFitting=1;jiggle=2;fillColor=#0050ef;strokeColor=#001DBC;" edge="1" parent="1" source="S6BSTaH9ZhvcuOsjfWCv-8" target="S6BSTaH9ZhvcuOsjfWCv-9">
          <mxGeometry width="50" height="50" relative="1" as="geometry">
            <mxPoint x="710" y="540" as="sourcePoint" />
            <mxPoint x="760" y="490" as="targetPoint" />
          </mxGeometry>
        </mxCell>
        <mxCell id="S6BSTaH9ZhvcuOsjfWCv-13" value="start" style="ellipse;whiteSpace=wrap;html=1;aspect=fixed;sketch=1;curveFitting=1;jiggle=2;" vertex="1" parent="1">
          <mxGeometry x="380" y="600" width="40" height="40" as="geometry" />
        </mxCell>
        <mxCell id="S6BSTaH9ZhvcuOsjfWCv-14" value="" style="endArrow=classic;html=1;rounded=0;exitX=0.704;exitY=-0.046;exitDx=0;exitDy=0;exitPerimeter=0;entryX=0;entryY=1;entryDx=0;entryDy=0;fillColor=#0050ef;strokeColor=#001DBC;" edge="1" parent="1" source="S6BSTaH9ZhvcuOsjfWCv-13" target="S6BSTaH9ZhvcuOsjfWCv-8">
          <mxGeometry width="50" height="50" relative="1" as="geometry">
            <mxPoint x="380" y="540" as="sourcePoint" />
            <mxPoint x="430" y="490" as="targetPoint" />
          </mxGeometry>
        </mxCell>
        <mxCell id="S6BSTaH9ZhvcuOsjfWCv-15" value="end" style="ellipse;whiteSpace=wrap;html=1;aspect=fixed;sketch=1;curveFitting=1;jiggle=2;" vertex="1" parent="1">
          <mxGeometry x="190" y="690" width="40" height="40" as="geometry" />
        </mxCell>
        <mxCell id="S6BSTaH9ZhvcuOsjfWCv-16" value="u" style="ellipse;whiteSpace=wrap;html=1;aspect=fixed;sketch=1;curveFitting=1;jiggle=2;" vertex="1" parent="1">
          <mxGeometry x="110" y="810" width="40" height="40" as="geometry" />
        </mxCell>
        <mxCell id="S6BSTaH9ZhvcuOsjfWCv-17" value="v" style="ellipse;whiteSpace=wrap;html=1;aspect=fixed;sketch=1;curveFitting=1;jiggle=2;" vertex="1" parent="1">
          <mxGeometry x="270" y="810" width="40" height="40" as="geometry" />
        </mxCell>
        <mxCell id="S6BSTaH9ZhvcuOsjfWCv-18" value="" style="endArrow=classic;html=1;rounded=0;exitX=1;exitY=0;exitDx=0;exitDy=0;entryX=0.289;entryY=0.996;entryDx=0;entryDy=0;entryPerimeter=0;sketch=1;curveFitting=1;jiggle=2;" edge="1" parent="1" source="S6BSTaH9ZhvcuOsjfWCv-16" target="S6BSTaH9ZhvcuOsjfWCv-15">
          <mxGeometry width="50" height="50" relative="1" as="geometry">
            <mxPoint x="370" y="870" as="sourcePoint" />
            <mxPoint x="420" y="820" as="targetPoint" />
          </mxGeometry>
        </mxCell>
        <mxCell id="S6BSTaH9ZhvcuOsjfWCv-19" value="" style="endArrow=classic;html=1;rounded=0;exitX=0;exitY=0;exitDx=0;exitDy=0;entryX=1;entryY=1;entryDx=0;entryDy=0;sketch=1;curveFitting=1;jiggle=2;fillColor=#60a917;strokeColor=#2D7600;" edge="1" parent="1" source="S6BSTaH9ZhvcuOsjfWCv-17" target="S6BSTaH9ZhvcuOsjfWCv-15">
          <mxGeometry width="50" height="50" relative="1" as="geometry">
            <mxPoint x="370" y="870" as="sourcePoint" />
            <mxPoint x="420" y="820" as="targetPoint" />
          </mxGeometry>
        </mxCell>
        <mxCell id="S6BSTaH9ZhvcuOsjfWCv-20" value="" style="endArrow=classic;html=1;rounded=0;exitX=1;exitY=0.5;exitDx=0;exitDy=0;entryX=0;entryY=0.5;entryDx=0;entryDy=0;sketch=1;curveFitting=1;jiggle=2;fillColor=#0050ef;strokeColor=#001DBC;" edge="1" parent="1" source="S6BSTaH9ZhvcuOsjfWCv-16" target="S6BSTaH9ZhvcuOsjfWCv-17">
          <mxGeometry width="50" height="50" relative="1" as="geometry">
            <mxPoint x="370" y="870" as="sourcePoint" />
            <mxPoint x="420" y="820" as="targetPoint" />
          </mxGeometry>
        </mxCell>
        <mxCell id="S6BSTaH9ZhvcuOsjfWCv-21" value="start" style="ellipse;whiteSpace=wrap;html=1;aspect=fixed;sketch=1;curveFitting=1;jiggle=2;" vertex="1" parent="1">
          <mxGeometry x="40" y="930" width="40" height="40" as="geometry" />
        </mxCell>
        <mxCell id="S6BSTaH9ZhvcuOsjfWCv-22" value="" style="endArrow=classic;html=1;rounded=0;exitX=0.704;exitY=-0.046;exitDx=0;exitDy=0;exitPerimeter=0;entryX=0;entryY=1;entryDx=0;entryDy=0;fillColor=#60a917;strokeColor=#2D7600;sketch=1;curveFitting=1;jiggle=2;" edge="1" parent="1" source="S6BSTaH9ZhvcuOsjfWCv-21" target="S6BSTaH9ZhvcuOsjfWCv-16">
          <mxGeometry width="50" height="50" relative="1" as="geometry">
            <mxPoint x="40" y="870" as="sourcePoint" />
            <mxPoint x="90" y="820" as="targetPoint" />
          </mxGeometry>
        </mxCell>
        <mxCell id="S6BSTaH9ZhvcuOsjfWCv-23" value="" style="endArrow=none;dashed=1;html=1;rounded=0;" edge="1" parent="1">
          <mxGeometry width="50" height="50" relative="1" as="geometry">
            <mxPoint x="360" y="1030" as="sourcePoint" />
            <mxPoint x="360" y="680" as="targetPoint" />
          </mxGeometry>
        </mxCell>
        <mxCell id="S6BSTaH9ZhvcuOsjfWCv-24" value="end" style="ellipse;whiteSpace=wrap;html=1;aspect=fixed;sketch=1;curveFitting=1;jiggle=2;" vertex="1" parent="1">
          <mxGeometry x="550" y="690" width="40" height="40" as="geometry" />
        </mxCell>
        <mxCell id="S6BSTaH9ZhvcuOsjfWCv-25" value="u" style="ellipse;whiteSpace=wrap;html=1;aspect=fixed;sketch=1;curveFitting=1;jiggle=2;" vertex="1" parent="1">
          <mxGeometry x="470" y="810" width="40" height="40" as="geometry" />
        </mxCell>
        <mxCell id="S6BSTaH9ZhvcuOsjfWCv-26" value="v" style="ellipse;whiteSpace=wrap;html=1;aspect=fixed;sketch=1;curveFitting=1;jiggle=2;" vertex="1" parent="1">
          <mxGeometry x="570" y="870" width="40" height="40" as="geometry" />
        </mxCell>
        <mxCell id="S6BSTaH9ZhvcuOsjfWCv-27" value="" style="endArrow=classic;html=1;rounded=0;exitX=1;exitY=0;exitDx=0;exitDy=0;entryX=0.289;entryY=0.996;entryDx=0;entryDy=0;entryPerimeter=0;sketch=1;curveFitting=1;jiggle=2;" edge="1" parent="1" source="S6BSTaH9ZhvcuOsjfWCv-25" target="S6BSTaH9ZhvcuOsjfWCv-24">
          <mxGeometry width="50" height="50" relative="1" as="geometry">
            <mxPoint x="730" y="870" as="sourcePoint" />
            <mxPoint x="780" y="820" as="targetPoint" />
          </mxGeometry>
        </mxCell>
        <mxCell id="S6BSTaH9ZhvcuOsjfWCv-28" value="" style="endArrow=classic;html=1;rounded=0;exitX=0;exitY=0;exitDx=0;exitDy=0;entryX=0.625;entryY=0.989;entryDx=0;entryDy=0;sketch=1;curveFitting=1;jiggle=2;entryPerimeter=0;" edge="1" parent="1" source="S6BSTaH9ZhvcuOsjfWCv-26" target="S6BSTaH9ZhvcuOsjfWCv-24">
          <mxGeometry width="50" height="50" relative="1" as="geometry">
            <mxPoint x="730" y="870" as="sourcePoint" />
            <mxPoint x="780" y="820" as="targetPoint" />
          </mxGeometry>
        </mxCell>
        <mxCell id="S6BSTaH9ZhvcuOsjfWCv-29" value="" style="endArrow=classic;html=1;rounded=0;exitX=1;exitY=0.5;exitDx=0;exitDy=0;entryX=0;entryY=0.5;entryDx=0;entryDy=0;sketch=1;curveFitting=1;jiggle=2;fillColor=#0050ef;strokeColor=#001DBC;" edge="1" parent="1" source="S6BSTaH9ZhvcuOsjfWCv-25" target="S6BSTaH9ZhvcuOsjfWCv-26">
          <mxGeometry width="50" height="50" relative="1" as="geometry">
            <mxPoint x="730" y="870" as="sourcePoint" />
            <mxPoint x="780" y="820" as="targetPoint" />
          </mxGeometry>
        </mxCell>
        <mxCell id="S6BSTaH9ZhvcuOsjfWCv-30" value="start" style="ellipse;whiteSpace=wrap;html=1;aspect=fixed;sketch=1;curveFitting=1;jiggle=2;" vertex="1" parent="1">
          <mxGeometry x="400" y="930" width="40" height="40" as="geometry" />
        </mxCell>
        <mxCell id="S6BSTaH9ZhvcuOsjfWCv-31" value="" style="endArrow=classic;html=1;rounded=0;exitX=0.704;exitY=-0.046;exitDx=0;exitDy=0;exitPerimeter=0;entryX=0;entryY=1;entryDx=0;entryDy=0;fillColor=#60a917;strokeColor=#2D7600;sketch=1;curveFitting=1;jiggle=2;" edge="1" parent="1" source="S6BSTaH9ZhvcuOsjfWCv-30" target="S6BSTaH9ZhvcuOsjfWCv-25">
          <mxGeometry width="50" height="50" relative="1" as="geometry">
            <mxPoint x="400" y="870" as="sourcePoint" />
            <mxPoint x="450" y="820" as="targetPoint" />
          </mxGeometry>
        </mxCell>
        <mxCell id="S6BSTaH9ZhvcuOsjfWCv-32" value="x" style="ellipse;whiteSpace=wrap;html=1;aspect=fixed;sketch=1;curveFitting=1;jiggle=2;" vertex="1" parent="1">
          <mxGeometry x="650" y="820" width="40" height="40" as="geometry" />
        </mxCell>
        <mxCell id="S6BSTaH9ZhvcuOsjfWCv-33" value="" style="endArrow=classic;html=1;rounded=0;exitX=1;exitY=0;exitDx=0;exitDy=0;sketch=1;curveFitting=1;jiggle=2;fillColor=#0050ef;strokeColor=#001DBC;" edge="1" parent="1" source="S6BSTaH9ZhvcuOsjfWCv-26" target="S6BSTaH9ZhvcuOsjfWCv-32">
          <mxGeometry width="50" height="50" relative="1" as="geometry">
            <mxPoint x="520" y="840" as="sourcePoint" />
            <mxPoint x="580" y="900" as="targetPoint" />
          </mxGeometry>
        </mxCell>
        <mxCell id="S6BSTaH9ZhvcuOsjfWCv-34" value="" style="endArrow=classic;html=1;rounded=0;exitX=0;exitY=0;exitDx=0;exitDy=0;entryX=0.996;entryY=0.704;entryDx=0;entryDy=0;fillColor=#60a917;strokeColor=#2D7600;entryPerimeter=0;sketch=1;curveFitting=1;jiggle=2;" edge="1" parent="1" source="S6BSTaH9ZhvcuOsjfWCv-32" target="S6BSTaH9ZhvcuOsjfWCv-24">
          <mxGeometry width="50" height="50" relative="1" as="geometry">
            <mxPoint x="438" y="938" as="sourcePoint" />
            <mxPoint x="486" y="854" as="targetPoint" />
          </mxGeometry>
        </mxCell>
      </root>
    </mxGraphModel>
  </diagram>
</mxfile>
